<?xml version="1.0" encoding="UTF-8"?>
<!-- Generated by Pixelmator Pro 3.7 -->
<svg width="757" height="785" viewBox="0 0 757 785" xmlns="http://www.w3.org/2000/svg">
    <path id="Shape" fill="#4a240e" fill-rule="evenodd" stroke="none" d="M 441.750061 784.285339 C 330.23761 784.403381 209.637604 784.403687 173.750061 784.286011 C 119.260986 784.1073 107.428024 783.820007 102 782.543701 C 98.425003 781.703125 92.125 779.331055 88 777.272522 C 82.669418 774.612366 78.320145 771.356018 72.963913 766.014893 C 67.156586 760.223877 64.474457 756.550171 61.27179 750 C 58.985962 745.325012 56.527206 738.575012 55.807877 735 C 55.088547 731.424988 54.518631 725.349976 54.541382 721.5 C 54.564148 717.650024 55.34819 711.349976 56.283707 707.5 C 57.219223 703.650024 59.57309 697.349976 61.514511 693.5 C 63.455948 689.650024 67.301102 683.935913 70.059326 680.802124 C 72.817535 677.668274 78.135071 673.069397 81.876068 670.582397 C 85.617081 668.095337 92.462875 664.809448 97.088943 663.280273 C 105.5 660.5 105.5 660.5 374.513611 660.5 C 629.202576 660.5 643.922974 660.594971 650.959167 662.283569 C 655.046692 663.264587 661.154968 665.427856 664.533081 667.090881 C 667.911194 668.753906 673.222778 672.226318 676.336548 674.807312 C 679.450317 677.388306 683.794495 681.902466 685.990295 684.838867 C 688.186096 687.775269 691.401855 693.151306 693.136353 696.785645 C 695.111938 700.92511 696.86554 706.915161 697.830566 712.820496 C 699.091553 720.536438 699.163391 723.672791 698.226501 730.10083 C 697.596985 734.420227 695.87384 741.002075 694.397339 744.727112 C 692.920837 748.452209 690.158264 753.863098 688.258301 756.751282 C 686.358337 759.639526 681.839905 764.718506 678.217346 768.037903 C 674.563965 771.385559 668.484558 775.616028 664.56543 777.537842 C 660.679443 779.443359 654.575012 781.69281 651 782.53656 C 645.286194 783.885071 619.976624 784.096619 441.750061 784.285339 Z M 709.700806 623.914917 C 706.290344 623.868164 701.25 623.282715 698.5 622.614014 C 695.75 621.945251 691.132629 620.109375 688.239197 618.53418 C 685.345703 616.959106 680.720459 613.282959 677.960876 610.365112 C 675.201233 607.447205 671.639404 602.302551 670.045593 598.932495 C 668.451843 595.5625 666.605164 589.587891 665.941895 585.655579 C 665.245789 581.528564 664.978638 574.911194 665.309998 570.002991 C 665.625732 565.326355 666.749878 559.017212 667.808167 555.982666 C 668.866394 552.94812 671.178406 548.114868 672.946045 545.242188 C 674.713623 542.369446 677.91687 538.515076 680.064331 536.67688 C 682.211792 534.838745 686.325256 532.052307 689.205261 530.484741 C 692.085327 528.917236 696.929871 527.04895 699.970886 526.333008 C 703.011902 525.617065 707.992981 525.02417 711.039917 525.015625 C 714.086853 525.007019 719.156921 525.671265 722.306702 526.491699 C 725.456482 527.312073 730.348328 529.15625 733.177429 530.589905 C 736.00647 532.023499 740.514832 535.448547 743.195923 538.201111 C 745.876953 540.953674 749.247437 545.521973 750.685791 548.352905 C 752.124207 551.183838 753.902344 555.75 754.637268 558.5 C 755.372253 561.25 756.245972 566.875 756.578979 571 C 757.001953 576.24054 756.681091 580.890198 755.513733 586.43396 C 754.59491 590.797607 752.485413 597.057434 750.825989 600.344727 C 749.166565 603.631958 745.48938 608.639343 742.654419 611.472168 C 739.819519 614.305054 735.025024 617.781128 732 619.196838 C 728.974976 620.612549 724.115356 622.2724 721.200806 622.885376 C 718.286194 623.498413 713.111206 623.961731 709.700806 623.914917 Z M 31.522507 527.5 C 57.003845 526.940186 57.003845 526.940186 58.503082 530.220093 C 59.327652 532.024048 62.930222 541.936279 66.508804 552.247375 C 70.087372 562.558411 76.464172 580.783447 80.679474 592.747375 C 84.89476 604.711304 88.5466 616.014282 88.794662 617.865051 C 89.08667 620.043701 88.761658 621.536743 87.872833 622.099731 C 87.117783 622.578003 82.632248 622.976257 77.904984 622.98468 C 70.960464 622.99707 69.013855 622.66394 67.767899 621.25 C 66.919754 620.287476 65.183212 616.227478 63.90892 612.227783 C 61.59201 604.955505 61.59201 604.955505 44.128433 605.227783 C 26.664841 605.5 26.664841 605.5 24.217392 613 C 22.871292 617.125 21.060684 621.0625 20.193832 621.75 C 19.223145 622.519897 15.473206 623 10.43132 623 C 4.39679 623 1.919647 622.608154 1.007599 621.509155 C 0.327087 620.689209 -0.031982 618.776733 0.209641 617.259155 C 0.451279 615.741577 5.511444 600.775024 11.454468 584 C 17.397491 567.224976 24.344025 547.650024 26.891235 540.5 L 31.522507 527.5 Z M 135.008881 623 C 116.424194 623 109.070862 622.670898 108.199997 621.799988 C 107.301758 620.901733 107 609.133301 107 575 C 107 540.866699 107.301758 529.098267 108.199997 528.200012 C 108.935806 527.464233 112.53334 527 117.5 527 C 122.466675 527 126.064209 527.464233 126.799988 528.200012 C 127.689728 529.089722 128 538.885193 128 566.083374 C 128 602.766724 128 602.766724 130.197113 603.341309 C 131.405548 603.657349 138.070251 603.644348 145.007599 603.3125 C 154.772064 602.845459 158.284882 603.026611 160.560486 604.11438 C 163.377655 605.461121 163.512421 605.830444 163.798401 612.987793 C 164.0448 619.154297 163.79361 620.677734 162.357269 621.728027 C 161.056824 622.678955 154.153625 623 135.008881 623 Z M 187 546 C 166.466675 546 162.003265 545.603271 161.200012 544.799988 C 160.492004 544.092041 160 540.688904 160 536.5 C 160 532.311096 160.492004 528.907959 161.200012 528.200012 C 162.088379 527.311646 171.64444 527 198 527 C 224.35556 527 233.911621 527.311646 234.799988 528.200012 C 235.507996 528.907959 236 532.311096 236 536.5 C 236 540.688904 235.507996 544.092041 234.799988 544.799988 C 233.996735 545.603271 229.533325 546 221.299988 546 L 209 546 L 209 583.299988 C 209 610.977783 208.69043 620.909546 207.799988 621.799988 C 207.06311 622.536865 203.456665 623 198.454987 623 C 191.834229 623 190.000275 622.657776 188.654999 621.171265 C 187.178345 619.539551 187 615.39093 187 582.671265 L 187 546 Z M 264.356689 623 C 256.971924 623 255.951294 622.768555 254.556702 620.777466 C 253.204773 618.84729 253 612.740356 253 574.348877 C 253 535.494934 253.190247 529.952637 254.571442 528.571411 C 255.745361 527.397461 258.224243 527 264.371429 527 C 269.43811 527 273.061096 527.461121 273.799988 528.200012 C 274.698242 529.098267 275 540.866699 275 575 C 275 609.133301 274.698242 620.901733 273.799988 621.799988 C 273.06076 622.539246 269.434814 623 264.356689 623 Z M 322 593.274536 C 322 619.749512 321.83493 621.017944 320.065735 621.964844 C 319.001892 622.53418 314.591888 623 310.265747 623 C 305.481262 623 301.929932 622.529907 301.200012 621.799988 C 300.301697 620.901733 300 609.116089 300 574.922485 C 300 535.990662 300.216705 529.065063 301.467438 528.027039 C 302.558838 527.121216 308.773041 526.912842 325.717438 527.213745 C 346.342346 527.580078 349.034607 527.828979 354.144836 529.841675 C 357.249481 531.064514 361.589294 533.368652 363.788849 534.962036 C 366.4104 536.861023 368.724915 539.839355 370.50766 543.607788 C 372.655548 548.14801 373.25589 550.952759 373.363617 556.950134 C 373.451874 561.864746 372.855408 566.59375 371.672913 570.35437 C 370.583893 573.817688 368.36438 577.804688 366.178467 580.224243 C 364.161438 582.456787 360.933624 585.270874 359.005554 586.477661 C 357.077515 587.684387 353.25 589.462158 350.5 590.428223 C 347.378143 591.525024 341.086395 592.389465 333.75 592.729675 L 322 593.274536 Z M 419.871399 623 C 397.815125 623 393.918579 622.775696 392.571411 621.428589 C 391.189209 620.046326 391 614.412109 391 574.62854 C 391 540.784119 391.302063 529.097961 392.200012 528.200012 C 392.938904 527.461121 396.56189 527 401.628601 527 C 407.775757 527 410.254639 527.397461 411.428589 528.571411 C 412.799622 529.942505 413 534.787842 413 566.571411 C 413 600.598999 413.115356 602.999939 414.75 602.999084 C 415.712524 602.998535 422.996582 603.238281 430.936768 603.531616 C 439.063416 603.83197 445.947571 604.541504 446.686768 605.155029 C 447.547852 605.869629 448 608.716064 448 613.422485 C 448 617.671631 447.510437 621.0896 446.799988 621.799988 C 445.928833 622.671143 438.549194 623 419.871399 623 Z M 470.467468 623 C 464.40094 623 461.920471 622.609131 461.007629 621.509155 C 460.327087 620.689209 459.982971 618.776733 460.24292 617.259155 C 460.502869 615.741577 463.241333 607.407837 466.328369 598.739746 C 469.415405 590.071533 476.067261 571.17157 481.110352 556.739746 C 486.153442 542.307861 490.961426 529.712524 491.794739 528.75 C 493.07135 527.275635 495.093018 527 504.631958 527 C 515.269958 527 516.042908 527.135925 517.427429 529.25 C 518.237854 530.487488 522.527039 541.961182 526.958923 554.74707 C 531.390869 567.532898 538.242004 587.270081 542.183777 598.607422 C 547.629456 614.270508 549.102966 619.614502 548.31958 620.860352 C 547.516785 622.137207 545.33606 622.564514 538.463684 622.791565 C 531.041443 623.036804 529.365234 622.79834 527.918274 621.291565 C 526.972046 620.306213 525.16156 616.227478 523.894897 612.227783 C 521.59198 604.955505 521.59198 604.955505 504.137756 605.227783 C 486.683472 605.5 486.683472 605.5 484.354431 612.407288 C 483.073425 616.206299 481.274841 620.143799 480.357666 621.157288 C 478.995056 622.662964 477.186096 623 470.467468 623 Z M 587.5 563.577759 C 587.057129 610.852417 586.598572 620.778748 585.861694 621.666626 C 585.104614 622.578857 582.172302 623 576.577576 623 C 571.550598 623 567.937683 622.53772 567.200012 621.799988 C 566.301758 620.901733 566 609.133301 566 575 C 566 540.866699 566.301758 529.098267 567.200012 528.200012 C 567.949646 527.450317 571.669128 527 577.111084 527 C 585.528503 527 585.905823 527.099365 588.30304 529.948303 C 589.66748 531.569824 597.870422 544.282349 606.531738 558.198303 C 615.193115 572.114258 622.891724 584.158936 623.639832 584.964294 C 624.789185 586.201599 625 582.008545 625 557.914307 C 625 537.069824 625.322754 529.077209 626.200012 528.200012 C 626.937683 527.46228 630.550598 527 635.577576 527 C 641.604065 527 644.080566 527.392151 644.99231 528.490784 C 645.930176 529.620789 646.262268 540.836121 646.364807 574.836914 C 646.475403 611.535095 646.250427 619.993042 645.127563 621.34613 C 644.039429 622.657349 641.915894 623 634.877563 623 C 627.612854 623 625.66803 622.667969 624.172607 621.172607 C 623.167542 620.167542 614.505005 606.797546 604.922607 591.461487 L 587.5 563.577759 Z M 712.18158 605.541809 C 714.75647 605.304565 718.63739 604.205322 720.805847 603.09906 C 722.974243 601.992798 725.847046 599.782104 727.189758 598.186279 C 728.532532 596.590576 730.653564 592.908203 731.903198 590.003357 C 733.204712 586.977905 734.404236 581.684326 734.711365 577.610901 C 735.08197 572.694153 734.734436 568.494385 733.584961 564 C 732.670593 560.424988 730.811096 555.816345 729.452698 553.758545 C 728.094299 551.700745 725.124023 548.786865 722.85199 547.283325 C 719.635376 545.154663 717.257813 544.471802 712.110535 544.197937 C 706.617126 543.90564 704.739563 544.252319 701 546.249268 C 698.525024 547.570923 695.041382 550.560425 693.258606 552.892578 C 691.475891 555.224731 689.28656 559.64624 688.393555 562.71814 C 687.240784 566.683655 686.898193 570.796997 687.212402 576.901733 C 687.517334 582.826172 688.349731 587.088257 689.889282 590.607422 C 691.118164 593.416504 693.788269 597.340332 695.822876 599.327026 C 697.857422 601.313721 701.317139 603.621887 703.511047 604.456177 C 705.888916 605.360474 709.390808 605.79895 712.18158 605.541809 Z M 33.236069 586 C 55.129578 586 55.212204 585.982178 54.63501 583.75 C 54.315033 582.512512 51.959152 574.974976 49.39975 567 C 44.798889 552.66394 44.730713 552.533936 43.37056 555.5 C 42.613922 557.150024 40.024124 564.6875 37.615463 572.25 L 33.236069 586 Z M 504.49176 586 C 515.216797 586 515.216797 586 514.630798 583.665161 C 514.308533 582.381042 511.956421 574.844666 509.403931 566.917725 C 504.763062 552.505127 504.763062 552.505127 502.999084 557.002563 C 502.028931 559.476135 499.769348 566.224976 497.977783 572 C 496.186218 577.775024 494.505859 583.287476 494.243591 584.25 C 493.811035 585.837524 494.762451 586 504.49176 586 Z M 322 544.732605 L 322 574.232605 L 331.75 573.810181 C 338.334351 573.524963 342.549713 572.832336 344.733063 571.677002 C 346.511261 570.736023 348.648773 568.646118 349.483063 567.032715 C 350.317383 565.419312 351 562.029663 351 559.5 C 351 556.970337 350.317383 553.580688 349.483063 551.967285 C 348.648773 550.353882 346.511261 548.279175 344.733063 547.356812 C 342.623291 546.262451 338.112457 545.515259 331.75 545.206177 L 322 544.732605 Z M 382 490.476501 C 370.725006 490.698883 357.899994 490.475677 353.5 489.980469 C 349.100006 489.48526 341.36734 488.382477 336.316284 487.529846 C 331.265259 486.677216 321.815247 484.644897 315.316284 483.01358 C 308.817322 481.382294 298.870331 478.406799 293.211823 476.401398 C 287.553345 474.395996 275.853333 469.27887 267.211823 465.029999 C 258.570313 460.781097 246.100006 453.679108 239.5 449.247772 C 232.899994 444.816437 223.225006 437.609894 218 433.233215 C 212.774994 428.856567 204.192444 420.785522 198.927673 415.297546 C 193.662872 409.80957 185.283661 399.910583 180.30722 393.299805 C 175.33075 386.689026 168.743835 377.054626 165.669647 371.890076 C 162.595459 366.725525 157.169037 356.424988 153.610962 349 C 150.052887 341.575012 145.124573 329.424988 142.65918 322 C 140.193787 314.575012 137.028625 303.325012 135.625488 297 C 134.222351 290.674988 132.382599 280.189453 131.53717 273.698792 C 130.656525 266.937866 130 254.335754 130 244.192627 C 130 234.454956 130.667938 220.777771 131.484283 213.79895 C 132.300659 206.820129 133.919373 196.721741 135.081451 191.358093 C 136.2435 185.994446 138.532288 177.082214 140.167633 171.55304 C 141.802979 166.023865 145.21283 156.549988 147.745087 150.5 C 150.277374 144.450012 154.361511 135.674988 156.820953 131 C 159.280396 126.325012 164.519012 117.549988 168.462341 111.5 C 172.40564 105.450012 178.688019 96.674988 182.423157 92 C 186.158295 87.325012 193.553589 79.076416 198.857147 73.669861 C 204.160706 68.263245 213 60.191345 218.5 55.7323 C 224 51.273254 233.899994 44.070068 240.5 39.725159 C 247.100006 35.38031 257.970184 29.150269 264.655975 25.880676 C 271.341736 22.611023 281.466736 18.182678 287.155975 16.039917 C 292.845184 13.897156 302.450012 10.778381 308.5 9.109314 C 314.549988 7.440247 324.674988 5.162537 331 4.047791 C 337.325012 2.933044 347.674988 1.570129 354 1.019043 C 360.325012 0.467957 370 0.014771 375.5 0.011963 C 381 0.009155 390.674988 0.47644 397 1.050354 C 403.325012 1.624329 412.549988 2.775452 417.5 3.608398 C 422.450012 4.441406 431.900024 6.475403 438.5 8.128418 C 445.099976 9.781433 454.549988 12.527893 459.5 14.231628 C 464.450012 15.935364 473.450012 19.513672 479.5 22.183411 C 485.549988 24.85321 495.224976 29.746338 501 33.057068 C 506.775024 36.367737 515.549988 41.971802 520.5 45.510437 C 525.450012 49.049072 534.119568 55.823059 539.765686 60.56366 C 545.411865 65.30426 554.042358 73.597412 558.94458 78.992859 C 563.846802 84.388306 570.959656 93.009644 574.750916 98.151367 C 578.542114 103.293152 584.162292 111.598145 587.240112 116.606934 C 590.317993 121.615723 594.898621 129.820374 597.419373 134.839478 C 599.940125 139.858582 603.793152 148.406372 605.981689 153.834656 C 608.170288 159.262878 611.572144 169.283264 613.541504 176.102112 C 615.510803 182.920959 618.237427 195.025024 619.600647 203 C 621.270508 212.769104 622.280029 223.436646 622.694763 235.695618 C 623.072571 246.862671 622.856689 258.857849 622.135864 266.748901 C 621.489868 273.820618 619.66803 285.882629 618.087402 293.553284 C 616.506775 301.223999 613.146851 313.799988 610.620911 321.5 C 608.09491 329.200012 603.583862 340.798706 600.596313 347.274841 C 597.608765 353.751038 592.143188 364.101013 588.450562 370.274841 C 584.757996 376.448669 579.476074 384.650024 576.713013 388.5 C 573.949951 392.350006 568.000916 399.774994 563.492981 405 C 558.984985 410.225006 550.826172 418.774994 545.362183 424 C 539.898254 429.225006 530.858948 436.992554 525.274902 441.261261 C 519.690857 445.529968 511.603027 451.205109 507.301941 453.872711 C 503.000916 456.540314 494.760925 461.123016 488.990906 464.056488 C 483.220886 466.98996 475.125 470.808594 471 472.542358 C 466.875 474.276093 459.224976 477.10437 454 478.827362 C 448.775024 480.550385 439.775024 483.063202 434 484.411407 C 428.224976 485.759613 418.775024 487.584839 413 488.467438 C 407.064514 489.374573 393.588257 490.247955 382 490.476501 Z"/>
    <path id="path1" fill="#e39923" fill-rule="evenodd" stroke="none" d="M 380.616333 473.989685 C 374.732635 474 374.732635 474 375.368591 457.25 C 375.718384 448.037506 376.275726 435.254974 376.607117 428.844421 C 377.209656 417.188812 377.209656 417.188812 385.854858 413.246887 C 390.60968 411.078827 401.953308 406.307373 411.062866 402.643677 C 420.172485 398.97998 433.44751 393.920837 440.562866 391.401184 C 447.678284 388.881531 456.14563 386.320251 459.37915 385.709473 C 465.136353 384.622009 465.306335 384.654846 467.576233 387.293701 C 468.851074 388.775879 470.658447 392.412994 471.592529 395.376282 C 472.885986 399.479645 473.161987 402.878082 472.750305 409.632019 C 472.453064 414.509399 470.521301 426.825012 468.457581 437 C 466.393799 447.174988 464.202942 456.052582 463.588928 456.727997 C 462.974976 457.403381 456.296143 459.988434 448.74707 462.472565 C 441.198059 464.956696 429.492493 468.089325 422.73468 469.43396 C 415.976929 470.778595 405.05957 472.351379 398.473938 472.929047 C 391.888245 473.506714 383.852356 473.984009 380.616333 473.989685 Z M 356.110046 456 C 355.5 472.5 355.5 472.5 351.5 472.233459 C 349.299988 472.086853 346.487488 471.740784 345.25 471.464417 C 343.022583 470.966949 343 470.788025 343 453.635925 C 343 438.379272 343.209015 436.128876 344.75 434.793762 C 345.712494 433.959869 348.572876 432.085236 351.106415 430.62793 C 355.71283 427.978271 355.71283 427.978271 356.216431 433.739136 C 356.493439 436.907623 356.445557 446.924988 356.110046 456 Z M 322.25 466.928986 C 321.287506 466.889923 317.350006 465.963043 313.5 464.869263 C 309.649994 463.775482 306.16275 462.547668 305.750519 462.140808 C 305.338318 461.733948 308.898071 458.81366 313.661072 455.651276 C 320.176605 451.325287 322.525146 450.223206 323.145233 451.200745 C 323.598511 451.915344 323.976257 455.762512 323.98468 459.75 C 323.997925 466.020691 323.763611 466.990417 322.25 466.928986 Z M 284.813568 453.951294 C 284.091125 453.9245 279.450012 451.977631 274.5 449.624939 C 269.549988 447.272247 261.24295 442.708435 256.039886 439.483124 C 250.836792 436.257813 242.286804 430.365906 237.039886 426.389984 C 231.792938 422.414093 223.559662 415.485504 218.743713 410.993134 C 213.927765 406.500763 206.347321 398.47702 201.898315 393.162598 C 197.44931 387.848145 190.226563 378.153992 185.847778 371.620056 C 181.468994 365.08606 175.374115 354.736023 172.303619 348.620056 C 169.233124 342.504028 164.957031 332.810425 162.801208 327.078674 C 160.645355 321.346985 158.626892 315.38446 158.315735 313.828674 C 157.75 311 157.75 311 168.131134 311 C 173.840759 311 184.134491 311.665344 191.006134 312.478516 C 197.877747 313.291748 209.575012 315.040039 217 316.363647 C 224.424988 317.687195 237.700012 320.396912 246.5 322.385193 C 255.299988 324.373474 271.016632 328.450684 281.425842 331.445679 C 299.925537 336.768494 300.437042 336.988037 304.142273 341.195557 C 306.227081 343.562988 309.109985 347.152649 310.548737 349.172485 C 311.987457 351.192383 314.002716 356.142395 315.0271 360.172485 C 316.051453 364.202637 317.574524 372.674988 318.411682 379 C 319.24884 385.325012 320.385681 396.688538 320.938049 404.252319 C 321.490387 411.816101 322.103455 420.462189 322.300415 423.465851 C 322.658508 428.927063 322.658508 428.927063 314.079254 434.616486 C 309.360657 437.745667 301.141113 443.387085 295.813568 447.152954 C 290.486053 450.918823 285.536041 453.978088 284.813568 453.951294 Z M 493.663269 441.849213 C 484.826538 447.066223 484.826538 447.066223 485.525085 443.885834 C 485.909241 442.136627 487.721985 435.613342 489.553345 429.389648 C 491.384705 423.165955 494.06842 412.78894 495.51709 406.32962 C 496.96582 399.87027 498.40741 391.528656 498.720581 387.792664 C 499.033813 384.056702 499.621399 381 500.026367 381 C 500.431274 381 501.965881 382.577515 503.436462 384.505615 C 504.907104 386.433655 507.420288 390.821167 509.021423 394.255585 C 510.622559 397.690002 512.598633 403.200012 513.412842 406.5 C 514.22699 409.799988 515.029663 415.832977 515.196533 419.906616 C 515.5 427.313202 515.5 427.313202 509 431.972717 C 505.424988 434.535431 498.523499 438.979858 493.663269 441.849213 Z M 348.435699 413.380066 C 343.707947 416.02243 343.707947 416.02243 344.414154 402.76123 C 344.802551 395.46756 345.458008 387.025024 345.870697 384 C 346.621033 378.5 346.621033 378.5 348.258759 382.248291 C 349.159546 384.309875 350.877808 390.921692 352.077118 396.941254 C 353.276459 402.960846 354.011536 408.527588 353.710602 409.311798 C 353.409668 410.096039 351.03595 411.926727 348.435699 413.380066 Z M 538.315002 407.450073 C 537.388245 388.888794 536.40033 380.916992 535.521729 377.759949 C 534.643127 374.602905 533.675598 371.160461 533.371704 370.110046 C 532.863525 368.35376 533.570068 368.154602 542.159546 367.632629 C 547.296814 367.320496 555.939758 366.812683 561.36615 366.504211 C 571.2323 365.943298 571.2323 365.943298 569.160156 369.22168 C 568.020447 371.024719 563.886047 376.849976 559.972595 382.166687 C 556.059082 387.483337 549.585144 395.347107 545.58606 399.641724 L 538.315002 407.450073 Z M 377.773499 397.97113 C 378.819702 372.80603 379.306519 364.9375 379.530334 364.25 C 379.803467 363.41095 382.193298 363 386.799194 363 C 390.573303 363 398.349915 362.148865 404.080566 361.108582 C 409.811279 360.068237 420.349976 357.26178 427.5 354.872009 C 434.650024 352.482178 440.99823 350.387695 441.607239 350.21759 C 442.216187 350.047546 443.291321 351.96875 443.996399 354.487061 C 444.701477 357.005371 447.038391 361.578308 449.189514 364.64917 C 451.340698 367.720093 452.965576 370.324707 452.800354 370.437256 C 452.635193 370.549805 450.25 371.143372 447.5 371.756287 C 444.75 372.369202 437.91925 374.470215 432.320618 376.425232 C 426.721985 378.380188 417.046936 381.963989 410.820618 384.389221 C 404.594299 386.814453 394.611511 390.862488 388.636719 393.384918 L 377.773499 397.97113 Z"/>
    <path id="path2" fill="#dc731a" fill-rule="evenodd" stroke="none" d="M 537.404663 351.649475 C 528.309326 352.273438 528.309326 352.273438 527.689697 347.75293 C 527.259705 344.615662 527.795349 340.213501 529.440308 333.366211 C 530.743896 327.939819 532.31073 320.125 532.922241 316 C 533.533691 311.875 534.138855 306.025024 534.267029 303 C 534.5 297.5 534.5 297.5 541.409546 305.75 C 545.209778 310.287476 548.878235 314 549.561707 314 C 550.245178 314 551.298401 312.582825 551.902161 310.850769 C 552.505981 309.118713 553 304.441101 553 300.456116 C 553 296.01947 552.228699 290.746887 551.010437 286.855347 C 549.916138 283.359924 547.595215 278.025024 545.852844 275 C 544.110474 271.974976 540.113403 266.980042 536.970398 263.900146 C 533.827393 260.82019 528.586426 256.67865 525.32373 254.696655 C 522.061035 252.714661 515.365967 249.757874 510.445801 248.125977 C 505.525635 246.49408 497.900024 244.560669 493.5 243.829468 C 489.099976 243.098267 479.200012 242.5 471.5 242.5 C 463.799988 242.5 446.25 243.092346 432.5 243.816284 C 418.75 244.540283 401.092529 245.393677 393.26123 245.712769 C 381.868713 246.176941 377.675903 245.960632 372.28656 244.630676 C 368.581818 243.716431 363.862732 241.851379 361.799622 240.486084 C 359.736542 239.120789 357.321838 236.894653 356.433594 235.539001 C 354.82431 233.082947 354.883118 233.004517 373.114716 213.287109 C 383.177612 202.404236 394.805908 190.124146 398.955444 185.998169 C 403.104919 181.872131 407.70282 177.877136 409.172974 177.120422 C 410.701782 176.333435 412.93689 176.018311 414.394714 176.384216 C 415.79657 176.736084 423.190735 183.013245 430.826294 190.333435 C 439.652771 198.795471 446.46875 204.470154 449.540649 205.914063 C 452.197998 207.163208 457.496582 208.83667 461.315308 209.632874 C 465.133972 210.429077 468.728821 210.923706 469.303833 210.732056 C 469.878906 210.540344 466.369446 205.909729 461.505066 200.441772 C 456.640686 194.973816 449.256287 187.008606 445.095215 182.741333 C 437.958679 175.422607 437.607971 174.855591 438.909851 172.741333 C 439.668945 171.508606 445.025696 164.200012 450.813782 156.5 C 456.601868 148.799988 464.508728 138.766846 468.384644 134.204041 C 472.260498 129.641296 476.998901 124.712708 478.914429 123.251709 C 480.829895 121.79071 483.614258 120.416687 485.101929 120.198364 C 487.458191 119.852539 489.395752 121.457092 500.138672 132.650696 C 506.921265 139.717834 533.514771 166.656311 559.235352 192.514038 C 606 239.528076 606 239.528076 605.991821 250.014038 C 605.987305 255.781311 605.522705 264.549988 604.959412 269.5 C 604.396118 274.450012 602.806702 284.125 601.427368 291 C 600.048096 297.875 597.101563 308.86499 594.879578 315.422241 C 592.657532 321.979431 588.811401 331.879456 586.332581 337.422241 C 583.85376 342.965027 581.527344 347.803833 581.162781 348.175171 C 580.798279 348.546509 572.849976 349.339722 563.5 349.937927 C 554.150024 350.536072 542.407104 351.306274 537.404663 351.649475 Z"/>
    <path id="path3" fill="#f2d298" fill-rule="evenodd" stroke="none" d="M 548 672 L 548 773 L 329.25 772.916687 C 143.922394 772.846069 109.60376 772.616455 104.634079 771.413574 C 101.407822 770.632629 96.007813 768.546509 92.634079 766.77771 C 89.26033 765.008911 83.800003 760.836243 80.5 757.505127 C 77.199997 754.174011 73.23584 748.926025 71.690765 745.842834 C 70.145691 742.759705 68.238525 737.821289 67.452637 734.868591 C 66.666748 731.915894 66.018402 726.332031 66.011871 722.460083 C 66.005341 718.588135 66.689041 712.77478 67.531189 709.541565 C 68.373352 706.308289 70.477539 701.007813 72.207184 697.762695 C 73.936829 694.517517 77.753998 689.421692 80.689789 686.438599 C 83.625595 683.455566 88.718292 679.656616 92.006897 677.996521 C 95.295517 676.336426 100.558838 674.308105 103.703201 673.489075 C 108.682251 672.1922 137.725983 672 328.710114 672 L 548 672 Z M 558.908386 773.115479 C 559.760925 736.988464 560.006531 714.237488 560.004211 699.25 L 560 672 L 601.25 672.015625 C 632.189209 672.027344 643.923706 672.366333 648.19574 673.371704 C 651.32843 674.109009 656.364868 675.922363 659.387939 677.401367 C 662.411011 678.880432 667.241455 682.207642 670.122314 684.795288 C 673.003174 687.382874 677.094727 692.181335 679.214661 695.458496 C 681.334595 698.735657 684.00354 704.493469 685.14563 708.253601 C 686.445801 712.534058 687.222229 717.860718 687.222229 722.5 C 687.222229 727.16626 686.444519 732.470093 685.121826 736.82489 C 683.966553 740.628235 681.184326 746.491089 678.939026 749.853455 C 676.693726 753.21582 672.976379 757.587524 670.678345 759.568359 C 668.380249 761.549194 664.664063 764.254578 662.420105 765.580322 C 660.176147 766.906006 655.676147 768.989563 652.420105 770.210388 C 646.694275 772.357239 645.062683 772.441345 602.704163 772.772766 L 558.908386 773.115479 Z M 649.104065 757 C 650.562134 757 652.294739 756.349731 652.954346 755.555054 C 653.613892 754.760315 654.00647 753.189087 653.826782 752.063477 C 653.647034 750.937805 649.971863 746.474731 645.659729 742.145508 C 637.819458 734.27417 637.819458 734.27417 640.05957 729.887085 C 641.437927 727.187622 642.482361 722.954834 642.774658 718.883789 C 643.10437 714.29071 642.742432 710.740723 641.591187 707.274475 C 640.679016 704.52832 638.335083 700.414917 636.382385 698.133667 C 634.429749 695.852417 630.957397 692.898804 628.666016 691.570068 C 626.374695 690.241394 622.025024 688.706177 619 688.158447 C 615.631531 687.548523 611.670959 687.5047 608.780579 688.045349 C 606.184875 688.530884 602.339661 689.806396 600.235596 690.879822 C 598.131592 691.953186 594.557617 694.841187 592.293396 697.297485 C 589.734314 700.073792 587.527466 703.823303 586.460754 707.207275 C 585.304443 710.875549 584.881592 714.746216 585.164368 719.075439 C 585.434204 723.207825 586.457886 727.240723 588.033569 730.378906 C 589.38092 733.062317 592.242249 736.763428 594.392151 738.603699 C 596.542053 740.443909 600.37085 742.748413 602.900513 743.724792 C 605.644592 744.783875 610.173706 745.5 614.128052 745.5 C 618.638489 745.5 622.360718 744.822021 625.778748 743.377991 C 630.801392 741.255981 630.801392 741.255981 638.627258 749.127991 C 644.474426 755.009705 647.123352 757 649.104065 757 Z M 113.23439 747.807922 C 117.380325 747.507751 117.534302 747.368225 119.368805 742.25 C 121.250519 737 121.250519 737 130.150024 737 C 138.95929 737 139.059235 737.027893 140.008881 739.75 C 140.53653 741.262512 141.555176 743.625 142.272491 745 C 143.367096 747.098267 144.293701 747.5 148.03833 747.5 C 151.918793 747.5 152.491852 747.227417 152.437561 745.407776 C 152.403198 744.25708 148.82608 733.344604 144.488373 721.157776 C 136.601624 699 136.601624 699 130.45047 699 C 124.299316 699 124.299316 699 119.786484 711.25 C 117.304413 717.987488 113.582047 728.31958 111.514542 734.210144 C 109.447037 740.100769 108.031357 745.639343 108.368576 746.518127 C 108.82579 747.709595 110.063126 748.037598 113.23439 747.807922 Z M 179.895081 747.777283 C 193.5 747.5 193.5 747.5 193.810852 743.741943 C 194.011475 741.316284 193.656952 739.814331 192.810852 739.505615 C 192.089874 739.242554 188.799988 738.945923 185.5 738.846436 C 182.200012 738.746948 178.487488 738.507202 177.25 738.313721 C 175.005463 737.962769 175 737.914429 175 718.428711 C 175 698.895508 175 698.895508 169.75 699.197754 C 164.5 699.5 164.5 699.5 164.230896 722.374512 C 164.039337 738.6604 164.29715 745.653076 165.125977 746.651794 C 166.042572 747.756226 169.183563 747.995605 179.895081 747.777283 Z M 213.741974 747.810852 C 217.5 747.5 217.5 747.5 218.00708 735.5 C 218.28598 728.900024 218.454773 720.66333 218.382141 717.196411 C 218.287689 712.687439 218.693115 710.449707 219.806122 709.336731 C 220.915497 708.227356 222.59613 707.9198 225.661011 708.265259 C 228.140594 708.544739 230.636505 708.255066 231.558655 707.58075 C 232.627106 706.7995 233.048401 705.265381 232.828705 702.955872 C 232.5 699.5 232.5 699.5 213.75 699.227905 C 195 698.955872 195 698.955872 195 703.477905 C 195 707.46637 195.265503 708.013733 197.25 708.116272 C 198.487488 708.180237 201.524994 708.292725 204 708.366272 C 208.5 708.5 208.5 708.5 208.757416 727 C 208.899017 737.174988 209.23288 746.089844 209.49939 746.810852 C 209.811859 747.656189 211.31842 748.011292 213.741974 747.810852 Z M 249.463715 747.797058 C 253.5 747.5 253.5 747.5 253.767792 723.25 C 254.035553 699 254.035553 699 249.017792 699 C 244 699 244 699 244 722.833313 C 244 735.94165 244.321167 746.987854 244.713715 747.380371 C 245.106262 747.772949 247.243774 747.960449 249.463715 747.797058 Z M 269 698.845032 C 269 735.906799 269.299988 746.966675 269.666656 747.333313 C 270.033325 747.700012 271.968323 748 273.966675 748 C 275.964996 748 278.140015 747.460022 278.799988 746.799988 C 279.510925 746.08905 280 742.667969 280 738.405884 C 280 731.211792 280 731.211792 287.932495 730.851563 C 293.987457 730.576538 296.517242 730.004333 298.620697 728.433838 C 300.136353 727.302246 302.30423 725.133728 303.438202 723.614868 C 304.971252 721.561523 305.5 719.352234 305.5 715 C 305.5 710.647766 304.971252 708.438477 303.438202 706.385132 C 302.30423 704.866272 300.135559 702.695801 298.618927 701.561768 C 296.217133 699.765991 294.128906 699.457764 282.430695 699.172485 L 269 698.845032 Z M 327 739 C 327 699 327 699 322 699 C 317 699 317 699 317 722.833313 C 317 735.94165 317.312439 746.979126 317.694336 747.361023 C 318.076233 747.74292 324.263733 747.93042 331.444336 747.777649 C 344.5 747.5 344.5 747.5 344.807495 743.25 C 345.11499 739 345.11499 739 336.057495 739 L 327 739 Z M 361.234375 747.807922 C 365.380341 747.507751 365.534302 747.368225 367.368805 742.25 C 369.250519 737 369.250519 737 378 737 C 386.749451 737 386.749451 737 388.636719 742.25 C 390.523926 747.5 390.523926 747.5 395.511963 747.5 C 400.216919 747.5 400.489136 747.358154 400.308533 745 C 400.203247 743.625 396.588867 732.825012 392.27655 721 C 384.436035 699.5 384.436035 699.5 378.306885 699.20459 C 372.177673 698.90918 372.177673 698.90918 370.223083 704.20459 C 369.148041 707.117065 365.454895 717.474426 362.016113 727.220947 C 358.577301 736.967529 356.037781 745.656067 356.372711 746.528931 C 356.825287 747.708252 358.074005 748.036804 361.234375 747.807922 Z M 422.5 716.769653 C 435.508423 737.485657 440.398132 744.535828 441.758545 745.801819 C 443.673462 747.583862 445.165588 748.035522 448.366028 747.801819 C 452.5 747.5 452.5 747.5 452.767883 723.194458 C 453.035828 698.888977 453.035828 698.888977 448.267883 699.194458 C 443.5 699.5 443.5 699.5 443 714.449524 L 442.5 729.399109 L 432.658203 714.199524 C 422.816406 699 422.816406 699 417.408203 699 C 412 699 412 699 412 722.833313 C 412 735.94165 412.321167 746.987854 412.713745 747.380371 C 413.106262 747.772949 415.243774 747.960449 417.463745 747.797058 C 421.5 747.5 421.5 747.5 422 732.134827 L 422.5 716.769653 Z M 488.589294 748 C 491.980835 748 496.33136 747.341675 498.257141 746.536987 C 500.182922 745.732361 503.227173 743.838257 505.022156 742.327881 C 506.817139 740.817505 509.342102 737.313354 510.633118 734.540894 C 512.27887 731.006714 512.983398 727.68512 512.990234 723.428162 C 512.995605 720.088623 512.291809 715.277832 511.426208 712.737488 C 510.438049 709.837402 508.24176 706.634033 505.523865 704.128723 C 503.143127 701.934265 499.403076 699.601807 497.212646 698.945557 C 495.022217 698.289307 490.262573 697.941284 486.63562 698.172241 C 481.341858 698.509338 479.203491 699.180908 475.79425 701.577026 C 473.458435 703.218689 470.192749 706.752808 468.53717 709.430664 C 465.841125 713.791382 465.525635 715.147583 465.51355 722.42865 C 465.503845 728.244812 466.031738 731.738098 467.368835 734.70575 C 468.396729 736.987061 470.454651 740.019409 471.941956 741.444397 C 473.429321 742.869385 476.395935 744.927307 478.534546 746.017578 C 481.166443 747.359436 484.415466 748 488.589294 748 Z M 489.381958 738.929688 C 487.796875 738.891052 485.753784 738.553589 484.841736 738.179688 C 483.929688 737.805908 482.196106 736.601074 480.98938 735.50238 C 479.782593 734.403687 478.166321 732.288513 477.397644 730.802002 C 476.628906 729.315552 476 725.804626 476 723 C 476 720.195374 476.632263 716.685547 477.404968 715.200317 C 478.177734 713.715149 479.949707 711.435364 481.342712 710.134155 C 482.927246 708.654053 485.489868 707.604004 488.187744 707.329346 C 491.36499 707.00592 493.358826 707.429443 495.762939 708.938354 C 497.557495 710.064697 499.807495 712.625549 500.762939 714.629028 C 501.718323 716.632507 502.487671 720.348083 502.472656 722.885864 C 502.457581 725.423645 501.622192 729.18042 500.61615 731.234253 C 499.610168 733.288086 497.319397 735.875549 495.525513 736.984253 C 493.731628 738.092896 490.967041 738.968384 489.381958 738.929688 Z M 615.407837 735.547913 C 612.151428 735.873718 609.322327 735.509155 607 734.464294 C 605.075012 733.598267 602.315979 731.756531 600.868835 730.371582 C 599.421753 728.986694 597.450012 726.106812 596.487305 723.971802 C 595.266663 721.265015 594.882874 718.570557 595.219299 715.069641 C 595.518738 711.953491 596.70697 708.53009 598.35199 706.044312 C 599.809631 703.841675 602.783813 701.130615 604.961304 700.019775 C 607.224365 698.865234 610.878845 698 613.49231 698 C 616.006836 698 619.512268 698.608521 621.282104 699.352234 C 623.051941 700.095947 625.914063 702.15686 627.642395 703.932007 C 629.370667 705.707092 631.336609 709.130615 632.011169 711.539795 C 632.726379 714.094299 632.944641 717.499878 632.53479 719.710083 C 632.148315 721.794556 630.914429 724.992798 629.792847 726.817322 C 628.671326 728.641846 626.080139 731.242126 624.034668 732.595703 C 621.87616 734.02417 618.25647 735.262878 615.407837 735.547913 Z M 130.322784 710.523987 C 133.996368 721.355408 135.32254 725.512512 135.639862 726.75 C 136.191986 728.903198 135.950409 729 130.025085 729 C 126.092499 729 123.991638 728.616943 124.267212 727.950195 C 124.505829 727.372803 125.965973 723.215698 127.511932 718.712158 L 130.322784 710.523987 Z M 377.912048 729 C 372.47287 729 371.865936 728.803772 372.498779 727.25 C 372.890808 726.287476 373.906403 723.474976 374.755646 721 C 375.604889 718.525024 376.731689 715.375 377.259644 714 C 378.162354 711.648987 378.353638 711.857544 380.469543 717.5 C 381.707031 720.799988 383.016235 724.737488 383.378845 726.25 C 384.038086 729 384.038086 729 377.912048 729 Z M 285.045441 722 C 280 722 280 722 280 715 C 280 708 280 708 285.045441 708 C 289.069031 708 290.588043 708.497131 292.545441 710.454529 C 293.895447 711.804565 295 713.849976 295 715 C 295 716.150024 293.895447 718.195435 292.545441 719.545471 C 290.588043 721.502869 289.069031 722 285.045441 722 Z M 153.215057 294.718994 C 149.931549 279.298767 148.459137 269.574463 147.824585 263.16095 C 147.125336 256.093201 146.908905 244.606812 147.275177 234 C 147.607513 224.375 148.600647 212.231262 149.482117 207.013916 C 150.363617 201.79657 152.178986 193.211426 153.516296 187.93573 C 154.853607 182.660095 157.568604 173.653809 159.549591 167.921814 C 161.530609 162.189819 166.245514 151.200012 170.027191 143.5 C 173.808838 135.799988 179.783325 125.126343 183.303802 119.780701 C 186.824249 114.43512 193.168274 105.79895 197.401611 100.589233 C 201.634949 95.379517 209.853333 86.577393 215.664673 81.028931 C 221.476044 75.48053 230.901001 67.434326 236.60907 63.148499 C 242.317139 58.862671 251.808899 52.483948 257.701874 48.973633 C 263.594849 45.463257 273.160187 40.483521 278.958191 37.907532 C 284.756195 35.331543 293.572571 31.834106 298.550171 30.135498 C 303.527771 28.436829 312.821808 25.728333 319.203552 24.116638 C 325.585327 22.504883 336.812744 20.356812 344.153381 19.343079 C 353.047363 18.114868 363.505066 17.5 375.5 17.5 C 385.400024 17.5 398.224976 18.087219 404 18.804871 C 409.775024 19.522583 419.674988 21.252563 426 22.649353 C 432.325012 24.046143 444.474976 27.475098 453 30.269226 C 462.529297 33.392517 473.946167 38.09967 482.638184 42.488953 C 490.414185 46.415649 501.323975 52.684998 506.88208 56.420776 C 512.440247 60.156555 521.934143 67.463989 527.979675 72.659607 C 534.025208 77.855225 542.566711 86.115906 546.960876 91.016785 C 551.35498 95.917664 558.065002 104.126282 561.871887 109.25824 C 565.678833 114.390198 570.858704 121.99054 573.38269 126.147888 C 575.906677 130.305237 580.235413 138.253235 583.002075 143.81012 C 585.768799 149.367004 589.631653 158.09552 591.586182 163.206787 C 593.54071 168.318054 596.206238 176.169006 597.509521 180.653381 C 598.812805 185.137756 600.556396 192.112732 601.384155 196.153381 C 602.211914 200.194031 603.21106 205.967773 603.604431 208.983948 C 604.319763 214.467957 604.319763 214.467957 572.60498 182.288025 C 555.161865 164.58905 531.577393 140.671204 520.195129 129.137329 C 504.802124 113.539368 498.163452 107.504761 494.283264 105.583313 C 490.849121 103.882751 487.41687 103 484.239014 103 C 480.568665 103 478.115173 103.778992 474.003296 106.25 C 470.785522 108.183655 464.963562 113.550232 459.628906 119.5 C 454.69751 125 445.981812 135.349976 440.26062 142.5 C 434.53949 149.650024 428.652893 156.995178 427.17926 158.822571 C 424.5 162.145142 424.5 162.145142 420.782104 160.572571 C 418.737305 159.707642 414.46228 159.004211 411.282104 159.009399 C 406.751343 159.016724 404.413574 159.641968 400.479858 161.898315 C 397.181824 163.7901 390.492676 170.198608 380.979858 180.580261 C 373.01593 189.271606 363.276245 199.784058 359.33609 203.941345 C 355.395905 208.098572 351.833588 211.162659 351.419769 210.750366 C 351.005951 210.338074 350.612915 194.138062 350.546387 174.750366 C 350.443024 144.639465 350.161346 138.333618 348.614471 131.5 C 347.6185 127.099976 345.552765 120.799988 344.023987 117.5 C 341.782043 112.660645 341.134216 109.551758 340.674896 101.428345 C 340.301666 94.827515 339.375122 89.404907 337.986267 85.69281 C 336.82074 82.577698 334.099731 77.382202 331.939575 74.147339 C 329.779388 70.912476 325.963013 66.377075 323.458679 64.068665 C 320.954346 61.760254 318.142578 60.018494 317.210297 60.197998 C 316.278015 60.377563 314.96933 61.663391 314.302155 63.055481 C 313.332397 65.078735 313.385132 66.981995 314.564972 72.543213 C 315.37674 76.369446 316.666992 83.055664 317.43219 87.401428 C 318.197418 91.747253 318.510406 96.149292 318.127716 97.183777 C 317.586884 98.645752 316.548798 97.239136 313.465973 90.867188 C 311.15921 86.099182 307.539948 80.647034 304.814911 77.834839 C 301.676605 74.596191 299.305298 73 297.632324 73 C 296.004791 73 294.911438 73.703674 294.493652 75.02002 C 294.063599 76.374939 295.365631 79.991516 298.448059 86.004089 C 300.975616 90.934265 303.288177 96.212708 303.587097 97.734009 C 304.118774 100.43988 303.917297 100.574036 294.315308 103.908142 C 288.91687 105.782593 280 109.235107 274.5 111.580383 C 269 113.925659 259.549988 118.165588 253.5 121.00238 C 247.450012 123.839172 241.222321 127.361633 239.660736 128.830078 C 238.099121 130.298523 236.186615 132.715149 235.410736 134.200317 C 234.634827 135.685547 234.007416 138.610535 234.016449 140.700317 C 234.025513 142.790161 235.037994 146.266235 236.266449 148.424988 C 237.658875 150.871887 240.159729 153.225525 242.907288 154.674988 C 246.683197 156.666931 248.771149 157 257.482391 157 C 263.366272 157 272.450378 157.864319 279.043274 159.051514 C 285.309448 160.17981 290.645752 161.312439 290.901733 161.56842 C 291.157715 161.824402 289.437805 170.013672 287.079712 179.766907 C 284.721649 189.520081 281.487061 203.713562 279.891754 211.307861 C 278.296478 218.902161 276.255798 230.827209 275.356964 237.807861 C 274.15097 247.173706 273.89035 254.169067 274.362457 264.5 C 274.718262 272.28656 275.856201 282.272461 276.926422 287 C 277.984741 291.674988 279.730103 298.200012 280.805054 301.5 C 281.879974 304.799988 283.494629 309.1875 284.393158 311.25 C 285.614075 314.052551 285.707611 314.974365 284.763428 314.89856 C 284.068542 314.842712 280.078796 313.767517 275.897308 312.509216 C 271.71582 311.250854 263.538239 309.052734 257.724884 307.624451 C 251.91156 306.196167 241.382782 303.892029 234.327606 302.504028 C 227.27243 301.116089 215.200012 299.06073 207.5 297.936646 C 199.249329 296.732117 185.22818 295.651794 173.357544 295.305908 L 153.215057 294.718994 Z"/>
</svg>
